# xmcd
#
# Track frame offsets:
#	150
#	13389
#	28695
#	48219
#	64766
#	82822
#	101262
#	128505
#	150927
#
# Disc length: 2210 seconds
#
# Revision: 15
# Processed by: cddbd v1.5.2PL0 Copyright (c) Steve Scherf et al.
# Submitted via: Jack! The Knife 20 Magnifico
#
DISCID=5c08a009
DTITLE=Stormwitch - The Beauty And The Beast
DYEAR=1987
DGENRE=Heavy Metal
TTITLE0=Call Of The Wicked
TTITLE1=Just For One Night
TTITLE2=The Beauty And The Beast
TTITLE3=Emerald Eye
TTITLE4=Tears By The Firelight
TTITLE5=Tigers Of The Sea
TTITLE6=Russia's On Fire
TTITLE7=Cheyenne (Where The Eagles Retreat)
TTITLE8=Welcome To Bedlam
EXTD=
EXTT0=
EXTT1=
EXTT2=
EXTT3=
EXTT4=
EXTT5=
EXTT6=
EXTT7=
EXTT8=
PLAYORDER=
